<svg xmlns="http://www.w3.org/2000/svg" xmlns:xlink="http://www.w3.org/1999/xlink" width="500" zoomAndPan="magnify" viewBox="0 0 375 374.999991" height="500" preserveAspectRatio="xMidYMid meet" version="1.0"><defs><clipPath id="66b31313c5"><path d="M 112.5 119 L 262.5 119 L 262.5 260.0625 L 112.5 260.0625 Z M 112.5 119 " clip-rule="nonzero"/></clipPath></defs><g clip-path="url(#66b31313c5)"><path fill="#ffffff" d="M 206.554688 206.519531 C 209.074219 206.441406 211.140625 207.167969 213.078125 209.121094 L 257.558594 253.949219 C 258.148438 254.550781 258.242188 255.246094 258.128906 255.730469 C 258.023438 256.222656 257.9375 256.195312 257.898438 256.195312 L 117.566406 256.195312 C 117.3125 256.195312 117.292969 256.164062 117.1875 256.078125 C 117.089844 255.980469 116.957031 255.78125 116.878906 255.46875 C 116.726562 254.859375 116.996094 254.074219 117.082031 253.988281 L 141.050781 231.101562 C 143.972656 228.304688 145.816406 226.648438 147.632812 225.742188 C 149.449219 224.820312 151.425781 224.472656 155.074219 224.472656 L 164.679688 224.472656 C 170.472656 224.472656 173.9375 223.339844 178.648438 220.609375 L 192.757812 212.441406 C 194.253906 212.371094 195.761719 211.859375 196.9375 210.777344 C 197.34375 210.398438 197.683594 209.925781 197.984375 209.421875 C 201.109375 207.609375 204.054688 206.59375 206.554688 206.519531 Z M 171.660156 181.605469 C 172.488281 181.597656 173.679688 181.867188 174.980469 182.554688 C 180.898438 185.664062 183.222656 187.617188 184.296875 189.71875 C 185.542969 192.125 185.964844 196.949219 185.964844 205.675781 C 185.867188 207.757812 186.664062 209.605469 187.925781 210.777344 L 187.933594 210.777344 L 176.726562 217.261719 C 172.644531 219.621094 170.394531 220.453125 165.945312 220.582031 C 166.285156 219.882812 166.53125 219.117188 166.621094 218.277344 C 168.234375 206.101562 168.949219 196.78125 169.535156 184.851562 C 169.652344 182.5 170.238281 181.976562 170.972656 181.722656 C 171.15625 181.65625 171.390625 181.617188 171.660156 181.605469 Z M 189.730469 134.425781 C 189.691406 135.824219 189.402344 137.902344 189.140625 139.285156 C 187.964844 139.789062 186.746094 140.15625 185.722656 140.496094 C 186.652344 138.464844 187.289062 136.0625 187.75 133.464844 C 187.972656 132.191406 189.777344 132.585938 189.730469 134.425781 Z M 193.148438 131.613281 L 197.691406 131.753906 C 196.410156 133.984375 194.972656 135.617188 193.371094 136.867188 C 193.445312 136.101562 193.53125 135.308594 193.570312 134.667969 C 193.648438 133.539062 193.492188 132.511719 193.148438 131.613281 Z M 204.710938 133.054688 C 201.332031 142.613281 195.558594 146.535156 188.398438 148.703125 C 185.085938 149.707031 181.941406 149.929688 178.128906 150.335938 C 177.132812 150.441406 176.382812 151.304688 176.410156 152.3125 L 177.015625 172.492188 C 177.046875 173.207031 177.460938 173.84375 178.101562 174.164062 C 185.320312 177.65625 190.039062 180.996094 192.363281 185.546875 C 195.085938 190.828125 194.875 196.859375 195.039062 205.78125 C 195.058594 206.703125 194.714844 207.386719 194.324219 207.910156 C 193.96875 208.414062 193.160156 208.597656 192.425781 208.597656 C 191.691406 208.597656 190.996094 208.335938 190.542969 207.910156 C 189.839844 207.070312 189.828125 206.546875 189.808594 205.78125 C 189.667969 196.886719 189.65625 191.699219 187.722656 187.945312 C 186.066406 184.722656 182.898438 182.363281 176.78125 179.136719 C 174.492188 177.941406 172.03125 177.257812 169.703125 178.082031 C 167.386719 178.90625 165.851562 181.402344 165.699219 184.65625 C 165.109375 196.546875 164.40625 205.714844 162.8125 217.800781 C 162.800781 217.832031 162.800781 217.847656 162.796875 217.871094 C 162.6875 218.945312 162.320312 219.429688 161.808594 219.785156 C 161.308594 220.132812 160.574219 220.296875 159.851562 220.210938 C 159.136719 220.113281 158.472656 219.757812 158.074219 219.289062 C 157.484375 218.402344 157.515625 217.9375 157.621094 217.121094 C 161.347656 189.269531 161.789062 166.980469 159.414062 149.058594 C 159.203125 147.453125 160.390625 146.078125 162 146.078125 C 170.5625 146.078125 180.609375 146.078125 186.886719 144.171875 C 192.804688 142.382812 198.585938 139.230469 202.300781 131.210938 C 203.292969 129.085938 205.40625 131.070312 204.710938 133.054688 Z M 226.285156 124.46875 L 226.285156 128.726562 L 207.453125 128.214844 C 206.988281 127.644531 206.421875 127.171875 205.773438 126.851562 C 203.949219 125.960938 201.574219 126.386719 199.972656 127.972656 L 185.640625 127.507812 C 184.085938 127.460938 184.335938 125.476562 185.550781 125.445312 Z M 228.175781 119.261719 C 227.347656 119.28125 226.625 119.824219 226.375 120.605469 L 185.675781 121.578125 C 182.613281 121.652344 180.25 124.109375 180.289062 126.550781 C 180.328125 128.699219 182.027344 130.71875 184.480469 131.234375 C 184.210938 131.753906 184.015625 132.328125 183.929688 132.957031 C 183.476562 136.429688 182.066406 139.527344 180.742188 141.453125 C 175.375 142.121094 168.261719 142.226562 161.996094 142.226562 C 158.136719 142.226562 155.347656 146.28125 155.597656 149.5625 C 157.449219 174.210938 156.882812 197.023438 153.800781 216.5625 C 153.558594 218.042969 153.8125 219.457031 154.390625 220.625 C 150.855469 220.675781 148.25 221.101562 145.90625 222.28125 C 143.40625 223.539062 141.351562 225.484375 138.394531 228.304688 L 114.429688 251.191406 C 112.933594 252.625 112.699219 254.609375 113.144531 256.390625 C 113.367188 257.289062 113.789062 258.179688 114.546875 258.886719 C 115.289062 259.601562 116.398438 260.066406 117.566406 260.066406 L 257.902344 260.066406 C 259.992188 260.066406 261.480469 258.34375 261.886719 256.601562 C 262.28125 254.851562 261.828125 252.78125 260.304688 251.230469 L 215.824219 206.390625 C 213.1875 203.738281 209.855469 202.550781 206.441406 202.667969 C 203.960938 202.742188 201.429688 203.460938 198.894531 204.613281 C 198.902344 196.320312 198.902344 189.828125 195.796875 183.777344 C 193.015625 178.359375 187.714844 174.757812 180.84375 171.3125 L 180.3125 153.890625 C 183.371094 153.582031 186.34375 153.359375 189.53125 152.390625 C 197.4375 149.992188 204.570312 144.949219 208.34375 134.359375 C 208.617188 133.59375 208.730469 132.851562 208.738281 132.132812 L 226.335938 132.597656 C 226.917969 134.882812 230.285156 134.339844 230.132812 132 L 230.132812 121.214844 C 230.144531 120.132812 229.257812 119.242188 228.175781 119.261719 Z M 228.175781 119.261719 " fill-opacity="1" fill-rule="nonzero"/></g><path fill="#ffffff" d="M 170.183594 121.214844 C 174.074219 122.695312 175.945312 126.917969 174.460938 130.730469 C 172.964844 134.542969 168.640625 136.441406 164.75 134.957031 C 160.878906 133.476562 159.003906 129.25 160.492188 125.453125 C 161.988281 121.632812 166.300781 119.738281 170.183594 121.214844 Z M 171.542969 117.605469 C 165.742188 115.390625 159.160156 118.265625 156.890625 124.042969 L 156.910156 124.042969 C 154.652344 129.800781 157.566406 136.355469 163.375 138.570312 C 169.195312 140.777344 175.78125 137.914062 178.046875 132.132812 C 180.296875 126.363281 177.375 119.824219 171.542969 117.605469 Z M 171.542969 117.605469 " fill-opacity="1" fill-rule="evenodd"/></svg>