<svg xmlns="http://www.w3.org/2000/svg" xmlns:xlink="http://www.w3.org/1999/xlink" width="500" zoomAndPan="magnify" viewBox="0 0 375 374.999991" height="500" preserveAspectRatio="xMidYMid meet" version="1.0"><defs><clipPath id="8b9de6a060"><path d="M 121 115 L 254.8125 115 L 254.8125 262 L 121 262 Z M 121 115 " clip-rule="nonzero"/></clipPath></defs><g clip-path="url(#8b9de6a060)"><path fill="#ffffff" d="M 184 184.832031 C 183.332031 184.832031 182.683594 184.585938 182.183594 184.136719 L 173.367188 176.253906 C 172.648438 175.609375 171.613281 175.453125 170.726562 175.855469 C 169.839844 176.257812 169.285156 177.144531 169.304688 178.113281 L 169.6875 197.054688 C 169.714844 198.378906 170.792969 199.4375 172.121094 199.4375 L 181.4375 199.4375 C 182.839844 199.4375 184.007812 200.484375 184.148438 201.875 L 187.1875 231.058594 C 187.265625 231.78125 187.050781 232.488281 186.59375 233.050781 C 186.132812 233.613281 185.480469 233.96875 184.46875 234.058594 C 183.070312 234.058594 181.90625 233.007812 181.761719 231.617188 L 179.199219 207.050781 C 179.070312 205.8125 178.027344 204.871094 176.777344 204.871094 L 156.953125 204.871094 C 155.605469 204.871094 154.515625 205.960938 154.515625 207.300781 L 154.515625 246.605469 C 154.515625 248.105469 153.292969 249.324219 151.789062 249.324219 C 150.285156 249.324219 149.0625 248.105469 149.0625 246.605469 L 149.015625 199.109375 C 149.0625 198.953125 149.140625 198.574219 149.152344 198.410156 C 149.160156 198.34375 149.136719 197.960938 149.136719 197.894531 L 148.792969 181.089844 C 148.773438 180.0625 148.109375 179.160156 147.132812 178.835938 C 146.875 178.75 146.613281 178.707031 146.359375 178.707031 C 145.625 178.707031 144.914062 179.039062 144.445312 179.636719 L 139.433594 185.988281 C 139.277344 186.1875 139.148438 186.410156 139.0625 186.644531 L 131.707031 206.515625 C 131.199219 207.886719 129.542969 208.617188 128.207031 208.128906 C 126.792969 207.605469 126.070312 206.039062 126.585938 204.632812 L 134.21875 184.019531 C 134.328125 183.734375 134.464844 183.480469 134.636719 183.261719 L 146.507812 168.222656 C 147.03125 167.5625 147.8125 167.1875 148.65625 167.1875 L 170.34375 167.1875 C 171.023438 167.1875 171.667969 167.433594 172.167969 167.878906 L 184.347656 178.773438 C 184.796875 179.175781 185.375 179.394531 185.976562 179.394531 L 200.5625 179.394531 C 202.066406 179.394531 203.289062 180.613281 203.289062 182.113281 C 203.289062 183.613281 202.066406 184.832031 200.5625 184.832031 Z M 193.972656 226.703125 C 193.195312 226.726562 192.410156 226.726562 191.636719 226.773438 L 188.992188 201.375 C 188.59375 197.5 185.34375 194.578125 181.4375 194.578125 L 174.507812 194.578125 L 174.285156 183.605469 L 178.933594 187.757812 C 180.328125 189.003906 182.132812 189.691406 184 189.691406 L 193.972656 189.691406 Z M 159.390625 236.105469 L 159.390625 209.730469 L 174.582031 209.730469 L 176.605469 229.144531 C 170.371094 230.765625 164.5625 233.128906 159.390625 236.105469 Z M 149.550781 150.957031 C 149.472656 148.535156 150.347656 146.230469 152.015625 144.464844 C 153.679688 142.699219 155.933594 141.6875 158.363281 141.617188 C 158.457031 141.613281 158.550781 141.613281 158.640625 141.613281 C 163.527344 141.613281 167.582031 145.5 167.730469 150.40625 C 167.804688 152.828125 166.929688 155.132812 165.265625 156.898438 C 163.601562 158.660156 161.347656 159.671875 158.921875 159.746094 C 158.917969 159.746094 158.917969 159.746094 158.917969 159.746094 C 156.457031 159.820312 154.171875 158.945312 152.410156 157.285156 C 150.636719 155.625 149.621094 153.378906 149.550781 150.957031 Z M 198.847656 126.277344 C 207.59375 130.429688 214.660156 127.167969 220.976562 124.242188 C 227.582031 121.179688 233.332031 118.519531 241.078125 123.347656 L 241.078125 156.800781 C 232.308594 152.617188 225.246094 155.898438 218.929688 158.835938 C 212.324219 161.902344 206.578125 164.5625 198.847656 159.730469 Z M 254.3125 258.667969 C 247.078125 240.382812 224.476562 227.476562 198.847656 226.703125 L 198.847656 189.691406 L 200.5625 189.691406 C 204.757812 189.691406 208.164062 186.289062 208.164062 182.113281 C 208.164062 177.933594 204.757812 174.535156 200.5625 174.535156 L 198.847656 174.535156 L 198.847656 165.234375 C 201.828125 166.652344 204.625 167.253906 207.246094 167.253906 C 212.332031 167.253906 216.816406 165.171875 220.984375 163.242188 C 227.882812 160.035156 233.835938 157.269531 242.117188 163.03125 C 242.867188 163.550781 243.832031 163.613281 244.640625 163.191406 C 245.445312 162.773438 245.949219 161.945312 245.949219 161.039062 L 245.949219 122.039062 C 245.949219 121.246094 245.558594 120.503906 244.90625 120.050781 C 234.316406 112.699219 226.144531 116.488281 218.925781 119.832031 C 212.023438 123.027344 206.074219 125.789062 197.800781 120.050781 C 197.0625 119.535156 196.082031 119.472656 195.28125 119.894531 C 194.476562 120.308594 193.972656 121.140625 193.972656 122.042969 L 193.972656 174.535156 L 186.90625 174.535156 L 175.417969 164.261719 C 174.023438 163.011719 172.21875 162.328125 170.34375 162.328125 L 166.230469 162.328125 C 167.15625 161.726562 168.039062 161.050781 168.8125 160.226562 C 171.367188 157.515625 172.714844 153.972656 172.601562 150.257812 C 172.363281 142.582031 166.042969 136.617188 158.21875 136.757812 C 154.488281 136.871094 151.023438 138.425781 148.464844 141.136719 C 145.910156 143.84375 144.5625 147.386719 144.675781 151.105469 C 144.792969 154.824219 146.351562 158.277344 149.066406 160.828125 C 149.671875 161.390625 150.328125 161.882812 151.003906 162.328125 L 148.65625 162.328125 C 146.308594 162.328125 144.128906 163.382812 142.683594 165.21875 L 130.8125 180.261719 C 130.332031 180.867188 129.941406 181.554688 129.65625 182.320312 L 122.019531 202.949219 C 120.570312 206.867188 122.585938 211.234375 126.511719 212.683594 C 130.285156 214.074219 134.855469 212.011719 136.273438 208.203125 L 143.496094 188.6875 L 144.058594 187.976562 L 144.261719 197.941406 C 144.261719 197.976562 144.261719 198.019531 144.269531 198.066406 C 144.226562 198.292969 144.191406 198.546875 144.191406 198.695312 L 144.191406 246.605469 C 144.191406 247.28125 144.3125 247.929688 144.476562 248.554688 C 141.960938 251.683594 139.933594 255.070312 138.511719 258.667969 C 138.015625 259.914062 138.628906 261.324219 139.882812 261.816406 C 141.136719 262.3125 142.550781 261.703125 143.042969 260.449219 C 144.113281 257.742188 145.605469 255.183594 147.394531 252.765625 L 147.390625 252.761719 C 148.636719 253.648438 150.148438 254.183594 151.789062 254.183594 C 155.984375 254.183594 159.390625 250.785156 159.390625 246.605469 L 159.390625 241.722656 C 164.625 238.351562 170.734375 235.71875 177.375 233.957031 C 178.550781 237.117188 181.742188 239.269531 185.257812 238.871094 C 187.273438 238.664062 189.09375 237.683594 190.371094 236.117188 C 191.425781 234.820312 191.980469 233.253906 192.039062 231.617188 C 193.484375 231.535156 194.945312 231.484375 196.414062 231.484375 C 221.085938 231.484375 243.03125 243.398438 249.785156 260.449219 C 250.160156 261.40625 251.078125 261.988281 252.050781 261.988281 C 252.347656 261.988281 252.648438 261.933594 252.945312 261.816406 C 254.195312 261.324219 254.808594 259.914062 254.3125 258.667969 " fill-opacity="1" fill-rule="nonzero"/></g></svg>